<svg width="32" height="33" viewBox="0 0 32 33" fill="none" xmlns="http://www.w3.org/2000/svg">
<path d="M30.6658 16.5C30.6658 14.6758 27.9392 13.0753 23.8365 12.1664C24.4374 10.6224 24.4835 9.38395 23.8341 8.7345C23.1783 8.07869 21.92 8.13201 20.353 8.75121C19.4473 4.59826 17.8364 1.83334 15.9996 1.83334C14.1627 1.83334 12.5399 4.61816 11.6358 8.79658C10.0154 8.1336 8.71181 8.06197 8.0401 8.7345C7.38749 9.38713 7.43683 10.6359 8.04805 12.1918C4.00902 13.1055 1.33331 14.6925 1.33331 16.5C1.33331 18.3075 4.052 19.9199 8.14595 20.8304C7.44399 22.4978 7.35406 23.8429 8.0401 24.5289C8.71977 25.2086 10.0449 25.1267 11.69 24.4438C12.6028 28.4877 14.1914 31.1667 15.9996 31.1667C17.8078 31.1667 19.3836 28.5084 20.2989 24.4915C21.8914 25.1314 23.1704 25.1927 23.8341 24.5289C24.517 23.8461 24.431 22.5122 23.7394 20.8559C27.897 19.951 30.6666 18.3385 30.6666 16.5H30.6658ZM16.8631 17.3643L15.9988 26.3396L15.1345 17.3643L6.15946 16.5L15.1345 15.6357L15.9988 6.66041L16.8631 15.6357L25.8381 16.5L16.8631 17.3643Z" fill="white"/>
</svg>
